
        <svg xmlns="http://www.w3.org/2000/svg" xmlns:xlink="http://www.w3.org/1999/xlink" version="1.1" width="3206.4317088291386" 
        height="2369.713732745858" viewBox="0 0 3206.4317088291386 2369.713732745858">
			
			<g transform="scale(10.321585441456936) translate(10, 10)">
				<defs id="SvgjsDefs3983"><linearGradient id="SvgjsLinearGradient3990"><stop id="SvgjsStop3991" stop-color="#ef4136" offset="0"></stop><stop id="SvgjsStop3992" stop-color="#fbb040" offset="1"></stop></linearGradient><linearGradient id="SvgjsLinearGradient3993"><stop id="SvgjsStop3994" stop-color="#fbb040" offset="0"></stop><stop id="SvgjsStop3995" stop-color="#f9ed32" offset="1"></stop></linearGradient></defs><g id="SvgjsG3984" featureKey="xG21Y3-0" transform="matrix(2.34551459022856,0,0,2.34551459022856,-16.02455404306218,-12.482829830256904)" fill="url(#SvgjsLinearGradient3990)"><g xmlns="http://www.w3.org/2000/svg"><path d="M6.932,43.395c0.129-0.096,0.261-0.194,0.422-0.327l35.08-24.878c3.508-2.783,11.711-2.783,15.22,0l35.079,23.879   c0.138,0.114,0.254,0.205,0.366,0.295c0.041,0.394,0.066,0.794,0.066,1.203l0.002-1.15h-0.002v-5.341   c0-3.478-1.479-6.437-4.434-8.871L57.653,7.326c-1.422-1.128-3.619-1.791-5.96-2.004h-3.298c-2.34,0.213-4.538,0.876-5.961,2.004   L11.355,28.205c-2.954,2.433-4.433,5.392-4.433,8.871l-0.09,6.396l0.09,0.104C6.922,43.515,6.931,43.456,6.932,43.395z"></path><path d="M54.633,67.592h-9.199c-5.189,0-7.784,2.596-7.784,7.666v19.42h24.648v-19.42C62.299,70.188,59.703,67.592,54.633,67.592z"></path><path d="M92.731,48.568L57.652,24.689c-3.51-2.783-11.712-2.783-15.22,0L7.352,49.568c-0.165,0.136-0.301,0.237-0.432,0.334v14.622   v20.721c0,5.189,4.281,9.434,9.513,9.434h7.416h8.549V72.756c0-7.23,3.701-10.932,11.1-10.932h13.116   c7.231,0,10.933,3.701,10.933,10.932v21.922h8.688h7.417c5.232,0,9.514-4.244,9.514-9.434V64.523V48.916   C93.032,48.813,92.895,48.702,92.731,48.568z"></path></g></g><g id="SvgjsG3985" featureKey="nameLeftFeature-0" transform="matrix(0.12362637816096217,0,0,0.12362637816096217,282.92829935546416,103.29285714285714)" fill="url(#SvgjsLinearGradient3993)"><path d="M5.86 9.38 c0.97334 0 1.84 0.22664 2.6 0.67998 s1.3567 1.11 1.79 1.97 s0.65 1.85 0.65 2.97 c0 0.10666 -0.0066602 0.28 -0.02 0.52 l-7.46 0 c0.02666 0.82666 0.24332 1.47 0.64998 1.93 s1.03 0.69 1.87 0.69 c0.52 0 0.99666 -0.13 1.43 -0.39 s0.71 -0.57666 0.83 -0.95 l2.5 0 c-0.73334 2.32 -2.3466 3.48 -4.84 3.48 c-0.94666 -0.01334 -1.8233 -0.22 -2.63 -0.62 s-1.45 -1.0233 -1.93 -1.87 s-0.72 -1.83 -0.72 -2.95 c0 -1.0533 0.24334 -2.0134 0.73 -2.88 s1.1333 -1.5133 1.94 -1.94 s1.6767 -0.64 2.61 -0.64 z M8.04 13.719999999999999 c-0.13334 -0.77334 -0.38 -1.3333 -0.74 -1.68 s-0.87334 -0.52 -1.54 -0.52 c-0.69334 0 -1.24 0.19666 -1.64 0.59 s-0.63334 0.93 -0.7 1.61 l4.62 0 z M18.560000000000002 13.32 l0 2.44 l-6.02 0 l0 -2.44 l6.02 0 z"></path></g><g id="SvgjsG3986" featureKey="nameRightFeature-0" transform="matrix(0.12362637816096217,0,0,0.12362637816096217,287.86648355049294,103.29285714285714)" fill="#ffffff"><path d="M3.92 5.720000000000001 l0 5.38 l0.06 0 c0.32 -0.53334 0.75334 -0.95334 1.3 -1.26 s1.1267 -0.46 1.74 -0.46 c1.32 0 2.2766 0.33334 2.87 1 s0.89 1.72 0.89 3.16 l0 6.46 l-2.84 0 l0 -5.88 c0 -0.84 -0.13666 -1.4667 -0.41 -1.88 s-0.74334 -0.62 -1.41 -0.62 c-0.76 0 -1.3167 0.23 -1.67 0.69 s-0.53 1.2167 -0.53 2.27 l0 5.42 l-2.84 0 l0 -14.28 l2.84 0 z M6.709999999999999 9.66 l0 5.86 c0 0.8 0.12666 1.42 0.38 1.86 s0.73334 0.66 1.44 0.66 c0.78666 0 1.35 -0.23334 1.69 -0.7 s0.51 -1.2133 0.51 -2.24 l0 -5.44 l2.84 0 l0 10.34 l-2.7 0 l0 -1.44 l-0.06 0 c-0.70666 1.1467 -1.7667 1.72 -3.18 1.72 c-1.3467 0 -2.31 -0.34334 -2.89 -1.03 s-0.87 -1.7433 -0.87 -3.17 l0 -6.42 l2.84 0 z M12.619999999999997 9.38 c1.5067 0 2.5134 0.57332 3.02 1.72 c0.78666 -1.1467 1.8333 -1.72 3.14 -1.72 c1.2933 0 2.2434 0.32666 2.85 0.98 s0.91 1.5533 0.91 2.7 l0 6.94 l-2.84 0 l0 -5.98 c0 -0.90666 -0.13666 -1.5333 -0.41 -1.88 s-0.71668 -0.52 -1.33 -0.52 c-1.2667 0 -1.9 0.86666 -1.9 2.6 l0 5.78 l-2.84 0 l0 -6.1 c0 -0.88 -0.14 -1.48 -0.42 -1.8 s-0.71334 -0.48 -1.3 -0.48 c-0.54666 0 -1.0033 0.21666 -1.37 0.65 s-0.55 1.0033 -0.55 1.71 l0 6.02 l-2.84 0 l0 -10.34 l2.68 0 l0 1.4 l0.04 0 c0.78666 -1.12 1.84 -1.68 3.16 -1.68 z"></path></g>
			</g>
		</svg>
	